<svg width="24" height="24" viewBox="0 0 24 24" fill="none" xmlns="http://www.w3.org/2000/svg">
<path d="M9.15372 4.99887C9.30312 4.99836 9.45073 5.03133 9.58571 5.09536C9.72069 5.15939 9.83961 5.25285 9.93372 5.36887L14.7637 11.3689C14.9108 11.5478 14.9912 11.7722 14.9912 12.0039C14.9912 12.2355 14.9108 12.4599 14.7637 12.6389L9.76372 18.6389C9.59398 18.8431 9.35007 18.9715 9.08565 18.9959C8.82122 19.0203 8.55794 18.9386 8.35372 18.7689C8.14951 18.5991 8.02108 18.3552 7.9967 18.0908C7.97232 17.8264 8.05398 17.5631 8.22372 17.3589L12.6937 11.9989L8.37372 6.63887C8.25144 6.49208 8.17376 6.31334 8.14988 6.12379C8.12601 5.93425 8.15692 5.74182 8.23898 5.56929C8.32103 5.39677 8.45079 5.25136 8.6129 5.15027C8.77501 5.04917 8.96269 4.99664 9.15372 4.99887Z" fill="black"/>
</svg>
