<svg width="24" height="24" viewBox="0 0 24 24" fill="none" xmlns="http://www.w3.org/2000/svg">
<g clip-path="url(#clip0_128_8314)">
<path d="M23.715 2.28503C23.5251 2.09585 23.268 1.98962 23 1.98962C22.732 1.98962 22.4749 2.09585 22.285 2.28503L17.521 7.04902L17.201 6.73602C16.3573 5.91198 15.2499 5.41211 14.0738 5.32449C12.8977 5.23686 11.7285 5.5671 10.772 6.25702C9.39154 7.29802 7.85707 8.11721 6.224 8.68502L4.15 9.29302C3.47605 9.49086 2.85093 9.82749 2.31481 10.2813C1.7787 10.7351 1.34344 11.296 1.037 11.928C0.735606 12.5515 0.567738 13.231 0.544147 13.9231C0.520555 14.6151 0.64176 15.3045 0.9 15.947C1.87878 18.3498 3.55671 20.4032 5.71632 21.841C7.87593 23.2788 10.4176 24.0348 13.012 24.011H13.936C14.1427 24.0109 14.3445 23.9473 14.514 23.829C16.2742 22.68 17.7785 21.1804 18.9331 19.4239C20.0876 17.6673 20.8675 15.6916 21.224 13.62C21.348 12.8279 21.2808 12.0176 21.0281 11.2568C20.7753 10.4959 20.3443 9.80648 19.771 9.24602L18.971 8.46202L23.718 3.71503C23.9068 3.52476 24.0125 3.26744 24.0119 2.99941C24.0113 2.73138 23.9046 2.4745 23.715 2.28503V2.28503ZM13.608 21.985H13.008C11.5304 21.987 10.0668 21.6993 8.7 21.138L8.711 21.132C10.4599 20.2545 11.9571 18.9469 13.062 17.332L13.58 16.571C13.7309 16.3496 13.7877 16.0772 13.7378 15.8139C13.6879 15.5506 13.5355 15.3179 13.314 15.167C13.0925 15.0161 12.8202 14.9594 12.5569 15.0092C12.2936 15.0591 12.0609 15.2116 11.91 15.433L11.392 16.194C10.4792 17.5256 9.24325 18.6036 7.8 19.327L6.549 19.957C5.54812 19.2535 4.67459 18.3843 3.966 17.387C5.60498 16.8356 7.1003 15.9255 8.343 14.723C8.53475 14.5355 8.64416 14.2795 8.64716 14.0113C8.65016 13.7432 8.54651 13.4848 8.359 13.293C8.17149 13.1013 7.91549 12.9919 7.64731 12.9889C7.37913 12.9859 7.12075 13.0895 6.929 13.277C5.80988 14.3614 4.44403 15.1576 2.949 15.597C2.888 15.462 2.822 15.33 2.767 15.191C2.61212 14.8107 2.53962 14.4018 2.55427 13.9914C2.56892 13.581 2.6704 13.1784 2.852 12.81C3.03585 12.4318 3.29659 12.0961 3.61755 11.8244C3.93851 11.5527 4.31263 11.3509 4.716 11.232L6.789 10.624C7.99195 10.2376 9.14264 9.70421 10.215 9.03602L18.13 16.748C17.0783 18.8415 15.5248 20.642 13.608 21.989V21.985ZM19.228 13.302C19.1515 13.7699 19.0484 14.233 18.919 14.689L11.948 7.90002C12.4594 7.53246 13.0732 7.3345 13.703 7.33402C14.4821 7.33304 15.2304 7.6379 15.787 8.18302L18.356 10.692C18.699 11.0268 18.957 11.4387 19.1087 11.8934C19.2604 12.348 19.3013 12.8324 19.228 13.306V13.302Z" fill="black"/>
</g>
<defs>
<clipPath id="clip0_128_8314">
<rect width="24" height="24" fill="white"/>
</clipPath>
</defs>
</svg>
