<svg width="24" height="24" viewBox="0 0 24 24" fill="none" xmlns="http://www.w3.org/2000/svg">
<g clip-path="url(#clip0_108_7945)">
<path d="M24 13C24 12.2044 23.6839 11.4413 23.1213 10.8787C22.5587 10.3161 21.7956 10 21 10H20.522L15.84 3.285C15.5637 2.88839 15.1956 2.56442 14.7671 2.34069C14.3386 2.11695 13.8624 2.00007 13.379 2H6.379C5.77081 2.0025 5.17759 2.18881 4.67719 2.53449C4.17679 2.88017 3.79258 3.36906 3.575 3.937L0.975003 10.785C0.667284 11.066 0.42162 11.4082 0.253729 11.7896C0.0858386 12.171 -0.000580079 12.5833 2.93032e-06 13V18H2V18.5C2 19.4283 2.36875 20.3185 3.02513 20.9749C3.68151 21.6313 4.57174 22 5.5 22C6.42826 22 7.3185 21.6313 7.97487 20.9749C8.63125 20.3185 9 19.4283 9 18.5V18H15V18.5C15 19.4283 15.3687 20.3185 16.0251 20.9749C16.6815 21.6313 17.5717 22 18.5 22C19.4283 22 20.3185 21.6313 20.9749 20.9749C21.6313 20.3185 22 19.4283 22 18.5V18H24V13ZM14.2 4.428L18.084 10H11V4H13.379C13.5402 3.99988 13.6991 4.03874 13.842 4.11326C13.985 4.18778 14.1078 4.29577 14.2 4.428ZM5.447 4.645C5.51896 4.45549 5.64682 4.29233 5.81362 4.17714C5.98042 4.06195 6.17829 4.00018 6.381 4H9V10H3.416L5.447 4.645ZM7 18.5C7 18.8978 6.84197 19.2794 6.56066 19.5607C6.27936 19.842 5.89783 20 5.5 20C5.10218 20 4.72065 19.842 4.43934 19.5607C4.15804 19.2794 4 18.8978 4 18.5V18H7V18.5ZM20 18.5C20 18.8978 19.842 19.2794 19.5607 19.5607C19.2794 19.842 18.8978 20 18.5 20C18.1022 20 17.7206 19.842 17.4393 19.5607C17.158 19.2794 17 18.8978 17 18.5V18H20V18.5ZM22 16H2V13C2 12.7348 2.10536 12.4804 2.2929 12.2929C2.48043 12.1054 2.73479 12 3 12H21C21.2652 12 21.5196 12.1054 21.7071 12.2929C21.8946 12.4804 22 12.7348 22 13V16Z" fill="black"/>
</g>
<defs>
<clipPath id="clip0_108_7945">
<rect width="24" height="24" fill="white"/>
</clipPath>
</defs>
</svg>
