<svg width="24" height="24" viewBox="0 0 24 24" fill="none" xmlns="http://www.w3.org/2000/svg">
<path d="M18.9223 1.8468H16.6408V0.9375C16.6408 0.419678 16.2211 0 15.7033 0H8.328C7.81018 0 7.3905 0.419678 7.3905 0.9375V1.8468H5.10938C3.81702 1.8468 2.76562 2.89819 2.76562 4.19055V21.6562C2.76562 22.9486 3.81702 24 5.10938 24H18.9223C20.2147 24 21.2661 22.9486 21.2661 21.6562V4.19055C21.2661 2.89819 20.2145 1.8468 18.9223 1.8468ZM14.7658 1.875V3.69379H9.26532C9.26532 3.07068 9.26532 2.55597 9.26532 1.875H14.7658ZM19.3911 21.6562C19.3911 21.9148 19.1807 22.125 18.9223 22.125H5.10938C4.85083 22.125 4.64062 21.9148 4.64062 21.6562V4.19055C4.64062 3.93219 4.85083 3.7218 5.10938 3.7218H7.39032V4.63129C7.39032 5.14911 7.81018 5.56879 8.32782 5.56879H15.7033C16.2209 5.56879 16.6408 5.14911 16.6408 4.63129V3.7218H18.9223C19.1807 3.7218 19.3911 3.93219 19.3911 4.19055V21.6562ZM16.366 10.9462C16.7322 11.3124 16.7322 11.9061 16.366 12.2721L11.4393 17.1987C11.0733 17.5649 10.4797 17.5649 10.1135 17.1987L7.66516 14.7504C7.29913 14.3844 7.29913 13.7908 7.66516 13.4246C8.03137 13.0585 8.62482 13.0585 8.99103 13.4246L10.7765 15.21L15.0401 10.9464C15.4063 10.5802 15.9998 10.5802 16.366 10.9462Z" fill="#4E4351"/>
</svg>
