<svg width="24" height="24" viewBox="0 0 24 24" fill="none" xmlns="http://www.w3.org/2000/svg">
<path d="M3 3L21 21" stroke="black" stroke-width="2" stroke-linecap="round" stroke-linejoin="round"/>
<path fill-rule="evenodd" clip-rule="evenodd" d="M5.3999 6.23003C4.9599 6.56003 4.5569 6.90803 4.1899 7.26203C2.96408 8.45224 1.94931 9.842 1.1889 11.372C1.09383 11.5676 1.04443 11.7821 1.04443 11.9995C1.04443 12.2169 1.09383 12.4315 1.1889 12.627C1.94891 14.1574 2.96334 15.5475 4.1889 16.738C5.9399 18.423 8.5179 20 11.9999 20C14.2359 20 16.0999 19.35 17.6099 18.438L13.6659 14.495C13.0888 14.8805 12.3959 15.054 11.7053 14.9859C11.0146 14.9178 10.369 14.6124 9.87823 14.1217C9.38751 13.631 9.08209 12.9853 9.01402 12.2947C8.94595 11.604 9.11943 10.9111 9.5049 10.334L5.4009 6.22903L5.3999 6.23003ZM20.6659 15.838C21.5157 14.8645 22.2366 13.7856 22.8109 12.628C22.906 12.4325 22.9554 12.2179 22.9554 12.0005C22.9554 11.7831 22.906 11.5686 22.8109 11.373C22.0509 9.8427 21.0365 8.45259 19.8109 7.26203C18.0599 5.57703 15.4829 4.00003 11.9999 4.00003C11.0521 3.99763 10.108 4.11968 9.1919 4.36303L20.6659 15.838Z" fill="black"/>
</svg>
