<svg width="16" height="16" viewBox="0 0 16 16" fill="none" xmlns="http://www.w3.org/2000/svg">
<path d="M11.158 3.134L7.495 6.804L5.835 5.141C5.408 4.714 4.69 5.407 5.145 5.863L7.15 7.87C7.334 8.044 7.655 8.044 7.84 7.87L11.846 3.856C12.322 3.38 11.58 2.711 11.158 3.134ZM1.5 0C0.678 0 0 0.678 0 1.5V10.5C0 11.322 0.678 11.98 1.5 12H2V14.5C2 14.888 2.498 15.19 2.844 14.844L5.688 12H14.5C15.322 12 16 11.322 16 10.5V1.5C16 0.678 15.322 0 14.5 0H1.5ZM1.5 1H14.5C14.786 1 15 1.214 15 1.5V10.5C15 10.786 14.786 11 14.5 11H5.5C5.375 11 5.25 11.042 5.156 11.125L3 13.28V11.5C3 11.238 2.762 11 2.5 11H1.5C1.214 11 1 10.786 1 10.5V1.5C1 1.214 1.214 1 1.5 1Z" fill="black"/>
</svg>
