<svg width="24" height="24" viewBox="0 0 24 24" fill="none" xmlns="http://www.w3.org/2000/svg">
<path d="M15.549 8.31606V8.29306M13.015 13.6561C14.0845 14.076 15.2659 14.1148 16.3607 13.7661C17.4554 13.4173 18.3967 12.7022 19.0262 11.7411C19.6558 10.7799 19.9351 9.6313 19.8174 8.48839C19.6996 7.34548 19.1919 6.27798 18.3796 5.46539C17.5673 4.65281 16.4999 4.14471 15.3571 4.02653C14.2142 3.90835 13.0655 4.18731 12.1041 4.81649C11.1427 5.44567 10.4273 6.3867 10.0782 7.48133C9.72905 8.57596 9.76747 9.75743 10.187 10.8271L13.015 13.6561ZM12.997 13.6741L6.828 19.8421L4.236 19.6071L4 17.0141L10.168 10.8461L12.997 13.6741Z" stroke="black" stroke-width="2" stroke-linecap="round" stroke-linejoin="round"/>
</svg>
