<svg width="18" height="21" viewBox="0 0 18 21" fill="none" xmlns="http://www.w3.org/2000/svg">
<path d="M7.14591 2.24799C7.29532 1.8787 7.55161 1.56244 7.88193 1.33976C8.21224 1.11707 8.60154 0.998108 8.99991 0.998108C9.39827 0.998108 9.78757 1.11707 10.1179 1.33976C10.4482 1.56244 10.7045 1.8787 10.8539 2.24799C12.3327 2.65467 13.637 3.53554 14.5667 4.75532C15.4963 5.9751 15.9998 7.46633 15.9999 8.99998V13.697L17.8319 16.445C17.9324 16.5956 17.9901 16.7706 17.9989 16.9515C18.0077 17.1323 17.9672 17.3121 17.8818 17.4718C17.7964 17.6314 17.6692 17.7648 17.5139 17.8579C17.3586 17.9509 17.181 18 16.9999 18H12.4649C12.3445 18.8331 11.928 19.5949 11.2916 20.1459C10.6552 20.6969 9.84167 21.0002 8.99991 21.0002C8.15815 21.0002 7.34457 20.6969 6.7082 20.1459C6.07184 19.5949 5.65531 18.8331 5.53491 18H0.999906C0.818863 18 0.641209 17.9509 0.485897 17.8579C0.330585 17.7648 0.203441 17.6314 0.118032 17.4718C0.0326219 17.3121 -0.00784989 17.1323 0.000933708 16.9515C0.00971731 16.7706 0.0674268 16.5956 0.167906 16.445L1.99991 13.697V8.99998C1.99991 5.77598 4.17991 3.05999 7.14591 2.24799ZM7.58591 18C7.68918 18.2926 7.88069 18.546 8.13403 18.7253C8.38737 18.9045 8.69007 19.0008 9.00041 19.0008C9.31074 19.0008 9.61344 18.9045 9.86678 18.7253C10.1201 18.546 10.3116 18.2926 10.4149 18H7.58491H7.58591ZM8.99991 3.99999C7.67382 3.99999 6.40205 4.52677 5.46437 5.46445C4.52669 6.40213 3.99991 7.6739 3.99991 8.99998V14C3.99995 14.1975 3.94149 14.3906 3.83191 14.555L2.86891 16H15.1299L14.1669 14.555C14.0577 14.3905 13.9996 14.1974 13.9999 14V8.99998C13.9999 7.6739 13.4731 6.40213 12.5354 5.46445C11.5978 4.52677 10.326 3.99999 8.99991 3.99999Z" fill="black"/>
</svg>
