<svg width="24" height="24" viewBox="0 0 24 24" fill="none" xmlns="http://www.w3.org/2000/svg">
<g clip-path="url(#clip0_126_8460)">
<path d="M4.00005 6.00006C3.6058 6.00109 3.21526 5.92394 2.85103 5.77306C2.48679 5.62218 2.15609 5.40057 1.87805 5.12106L0.334051 3.74706C0.135935 3.57042 0.0160998 3.32232 0.000909397 3.05733C-0.014281 2.79234 0.0764171 2.53217 0.253051 2.33406C0.429685 2.13594 0.677787 2.0161 0.942775 2.00091C1.20776 1.98572 1.46793 2.07642 1.66605 2.25306L3.25105 3.66706C3.34179 3.76895 3.45242 3.8512 3.57613 3.90874C3.69984 3.96629 3.83402 3.9979 3.97041 4.00165C4.1068 4.0054 4.24251 3.9812 4.36919 3.93053C4.49588 3.87987 4.61086 3.80382 4.70705 3.70706L8.31105 0.276055C8.50484 0.103525 8.75811 0.0130738 9.01735 0.0238058C9.2766 0.0345378 9.52152 0.145613 9.70039 0.33357C9.87926 0.521527 9.97807 0.771649 9.97596 1.03111C9.97384 1.29056 9.87096 1.53904 9.68905 1.72406L6.10005 5.13806C5.82382 5.41267 5.49618 5.63015 5.13584 5.77806C4.77551 5.92597 4.38956 6.00141 4.00005 6.00006ZM24 4.00006C24 3.73484 23.8947 3.48049 23.7072 3.29295C23.5196 3.10541 23.2653 3.00006 23 3.00006H13C12.7348 3.00006 12.4805 3.10541 12.2929 3.29295C12.1054 3.48049 12 3.73484 12 4.00006C12 4.26527 12.1054 4.51963 12.2929 4.70716C12.4805 4.8947 12.7348 5.00006 13 5.00006H23C23.2653 5.00006 23.5196 4.8947 23.7072 4.70716C23.8947 4.51963 24 4.26527 24 4.00006ZM6.10005 13.1381L9.68905 9.72406C9.78922 9.63488 9.87043 9.52646 9.92784 9.40525C9.98526 9.28404 10.0177 9.15253 10.0233 9.01852C10.0288 8.88452 10.0073 8.75077 9.96014 8.62523C9.91294 8.4997 9.84097 8.38494 9.74851 8.28778C9.65605 8.19063 9.54499 8.11306 9.42195 8.05971C9.2989 8.00635 9.16638 7.97829 9.03226 7.97719C8.89815 7.9761 8.76519 8.002 8.64129 8.05334C8.51739 8.10468 8.40508 8.18042 8.31105 8.27606L4.71105 11.7071C4.52068 11.8891 4.26744 11.9907 4.00405 11.9907C3.74066 11.9907 3.48742 11.8891 3.29705 11.7071L1.70705 10.1221C1.51845 9.9399 1.26585 9.8391 1.00365 9.84138C0.741453 9.84366 0.490641 9.94883 0.305233 10.1342C0.119825 10.3196 0.0146557 10.5705 0.0123772 10.8327C0.0100988 11.0949 0.110893 11.3475 0.293051 11.5361L1.87805 13.1211C2.43772 13.6809 3.19597 13.9968 3.98755 14C4.77913 14.0031 5.53989 13.6933 6.10405 13.1381H6.10005ZM24 12.0001C24 11.7348 23.8947 11.4805 23.7072 11.293C23.5196 11.1054 23.2653 11.0001 23 11.0001H13C12.7348 11.0001 12.4805 11.1054 12.2929 11.293C12.1054 11.4805 12 11.7348 12 12.0001C12 12.2653 12.1054 12.5196 12.2929 12.7072C12.4805 12.8947 12.7348 13.0001 13 13.0001H23C23.2653 13.0001 23.5196 12.8947 23.7072 12.7072C23.8947 12.5196 24 12.2653 24 12.0001ZM6.10005 21.1381L9.68505 17.7241C9.78522 17.6349 9.86643 17.5265 9.92384 17.4053C9.98126 17.284 10.0137 17.1525 10.0193 17.0185C10.0248 16.8845 10.0033 16.7508 9.95613 16.6252C9.90894 16.4997 9.83697 16.3849 9.74451 16.2878C9.65205 16.1906 9.54099 16.1131 9.41795 16.0597C9.2949 16.0064 9.16238 15.9783 9.02826 15.9772C8.89415 15.9761 8.76119 16.002 8.63729 16.0533C8.51339 16.1047 8.40108 16.1804 8.30705 16.2761L4.70705 19.7071C4.61086 19.8038 4.49588 19.8799 4.36919 19.9305C4.24251 19.9812 4.1068 20.0054 3.97041 20.0017C3.83402 19.9979 3.69984 19.9663 3.57613 19.9087C3.45242 19.8512 3.34179 19.769 3.25105 19.6671L1.66605 18.2531C1.46793 18.0764 1.20776 17.9857 0.942775 18.0009C0.677787 18.0161 0.429685 18.1359 0.253051 18.3341C0.0764171 18.5322 -0.014281 18.7923 0.000909397 19.0573C0.0160998 19.3223 0.135935 19.5704 0.334051 19.7471L1.87805 21.1211C2.43772 21.6809 3.19597 21.9968 3.98755 22C4.77913 22.0031 5.53989 21.6933 6.10405 21.1381H6.10005ZM24 20.0001C24 19.7348 23.8947 19.4805 23.7072 19.293C23.5196 19.1054 23.2653 19.0001 23 19.0001H13C12.7348 19.0001 12.4805 19.1054 12.2929 19.293C12.1054 19.4805 12 19.7348 12 20.0001C12 20.2653 12.1054 20.5196 12.2929 20.7072C12.4805 20.8947 12.7348 21.0001 13 21.0001H23C23.2653 21.0001 23.5196 20.8947 23.7072 20.7072C23.8947 20.5196 24 20.2653 24 20.0001Z" fill="black"/>
</g>
<defs>
<clipPath id="clip0_126_8460">
<rect width="24" height="24" fill="white"/>
</clipPath>
</defs>
</svg>
