<svg width="24" height="24" viewBox="0 0 24 24" fill="none" xmlns="http://www.w3.org/2000/svg">
<g clip-path="url(#clip0_65_5044)">
<path d="M23.4337 8.82465L15.66 8.10367L12.5721 0.93326C12.3559 0.431182 11.644 0.431182 11.4278 0.93326L8.33996 8.10372L0.566263 8.82465C0.0219507 8.87514 -0.198033 9.55215 0.212638 9.9129L6.07791 15.0655L4.36145 22.6815C4.24126 23.2148 4.81717 23.6332 5.28718 23.3541L12 19.3681L18.7128 23.3541C19.1828 23.6332 19.7588 23.2148 19.6386 22.6815L17.9221 15.0655L23.7874 9.9129C24.198 9.55215 23.9781 8.87514 23.4337 8.82465Z" fill="#FFDC64"/>
<path d="M12.5721 0.93326C12.3559 0.431182 11.644 0.431182 11.4278 0.93326L8.33995 8.10372L0.566262 8.82465C0.0219507 8.87514 -0.198033 9.55215 0.212638 9.9129L6.07791 15.0655L4.36144 22.6815C4.24125 23.2148 4.81716 23.6332 5.28717 23.3541L6.78543 22.4645C6.99281 13.9285 10.9589 7.91739 14.0989 4.47869L12.5721 0.93326Z" fill="#FFC850"/>
</g>
<defs>
<clipPath id="clip0_65_5044">
<rect width="24" height="24" fill="white"/>
</clipPath>
</defs>
</svg>
