<svg width="24" height="24" viewBox="0 0 24 24" fill="none" xmlns="http://www.w3.org/2000/svg">
<path d="M3 8V6C3 5.46957 3.21071 4.96086 3.58579 4.58579C3.96086 4.21071 4.46957 4 5 4H19C19.5304 4 20.0391 4.21071 20.4142 4.58579C20.7893 4.96086 21 5.46957 21 6V8M3 8H21M3 8V14M3 8H9M21 8V12M21 8H9M3 14V18C3 18.5304 3.21071 19.0391 3.58579 19.4142C3.96086 19.7893 4.46957 20 5 20H9M3 14H9M9 8V14M9 20V14M9 20H11M9 14H13C13.5304 14 14.0391 13.7893 14.4142 13.4142C14.7893 13.0391 15 12.5304 15 12V8M18 15V18M18 18V21M18 18H21M18 18H15" stroke="black" stroke-width="2" stroke-linecap="round" stroke-linejoin="round"/>
</svg>
