<svg width="24" height="24" viewBox="0 0 24 24" fill="none" xmlns="http://www.w3.org/2000/svg">
<path d="M1.38452 0.461548H23.5384V22.6154H1.38452V0.461548Z" fill="white" fill-opacity="0.01"/>
<path d="M1.38452 0.461548H23.5384V22.6154H1.38452V0.461548Z" fill="white" fill-opacity="0.01"/>
<path d="M20.6676 9.97243C20.7839 9.18966 20.7461 8.38843 20.5522 7.61766C20.2887 6.5659 19.7438 5.60572 18.9761 4.84013C18.2105 4.07218 17.2503 3.52716 16.1985 3.26351C15.4288 3.07067 14.6286 3.03162 13.8438 3.14859" stroke="black" stroke-width="1.84615" stroke-linecap="round" stroke-linejoin="round"/>
<path d="M17.1647 9.60139C17.2292 9.173 17.1921 8.73546 17.0564 8.32403C16.9208 7.91261 16.6904 7.53881 16.3838 7.23277C16.0777 6.92624 15.7039 6.6959 15.2924 6.56034C14.881 6.42477 14.4435 6.38777 14.0151 6.45231" stroke="black" stroke-width="1.84615" stroke-linecap="round" stroke-linejoin="round"/>
<path d="M8.01964 4.52032C8.18429 4.52041 8.34593 4.56453 8.48778 4.64812C8.62964 4.73171 8.74655 4.85172 8.82641 4.99571L9.9558 7.02925C10.0287 7.16048 10.0684 7.30751 10.0716 7.45758C10.0749 7.60765 10.0414 7.75624 9.97426 7.89048L8.88641 10.0657C8.88641 10.0657 9.20164 11.6866 10.5207 13.0057C11.8403 14.3248 13.4556 14.6349 13.4556 14.6349L15.6309 13.5471C15.7651 13.48 15.9138 13.4466 16.0638 13.4499C16.2139 13.4532 16.3609 13.4931 16.4921 13.566L18.5321 14.7C18.6758 14.7801 18.7956 14.897 18.8789 15.0389C18.9622 15.1807 19.0062 15.3423 19.0061 15.5068V17.8486C19.0061 19.0408 17.8984 19.9025 16.7686 19.5208C14.4479 18.738 10.8461 17.2468 8.56241 14.964C6.27964 12.6808 4.78887 9.07848 4.00564 6.75786C3.62441 5.62802 4.48564 4.52032 5.67826 4.52032H8.01964V4.52032Z" stroke="black" stroke-width="1.84615" stroke-linejoin="round"/>
</svg>
