<svg width="24" height="24" viewBox="0 0 24 24" fill="none" xmlns="http://www.w3.org/2000/svg">
<path d="M9 10C10.6569 10 12 8.65685 12 7C12 5.34315 10.6569 4 9 4C7.34315 4 6 5.34315 6 7C6 8.65685 7.34315 10 9 10Z" stroke="black" stroke-width="2" stroke-linecap="round" stroke-linejoin="round"/>
<path d="M14 10C14.394 10 14.7841 9.9224 15.1481 9.77164C15.512 9.62087 15.8427 9.3999 16.1213 9.12132C16.3999 8.84274 16.6209 8.51203 16.7716 8.14805C16.9224 7.78407 17 7.39397 17 7C17 6.60603 16.9224 6.21593 16.7716 5.85195C16.6209 5.48797 16.3999 5.15726 16.1213 4.87868C15.8427 4.6001 15.512 4.37913 15.1481 4.22836C14.7841 4.0776 14.394 4 14 4" stroke="black" stroke-width="2" stroke-linecap="round" stroke-linejoin="round"/>
<path d="M11 13H7C5.93913 13 4.92172 13.4214 4.17157 14.1716C3.42143 14.9217 3 15.9391 3 17C3 17.7956 3.31607 18.5587 3.87868 19.1213C4.44129 19.6839 5.20435 20 6 20H12C12.7956 20 13.5587 19.6839 14.1213 19.1213C14.6839 18.5587 15 17.7956 15 17C15 15.9391 14.5786 14.9217 13.8284 14.1716C13.0783 13.4214 12.0609 13 11 13V13Z" stroke="black" stroke-width="2" stroke-linecap="round" stroke-linejoin="round"/>
<path d="M17 13C18.0609 13 19.0783 13.4214 19.8284 14.1716C20.5786 14.9217 21 15.9391 21 17C21 17.7956 20.6839 18.5587 20.1213 19.1213C19.5587 19.6839 18.7956 20 18 20" stroke="black" stroke-width="2" stroke-linecap="round" stroke-linejoin="round"/>
</svg>
