<svg width="24" height="24" viewBox="0 0 52 51" xmlns="http://www.w3.org/2000/svg"><g fill="none" class="nc-icon-wrapper"><path fill="#fff" fill-opacity=".01" d="M3 1h48v48H3z"/><path fill="#fff" fill-opacity=".01" d="M3 1h48v48H3z"/><path d="M44.78 21.607c.252-1.696.17-3.432-.25-5.102a12.939 12.939 0 0 0-3.415-6.018 12.94 12.94 0 0 0-6.018-3.416 13.068 13.068 0 0 0-5.102-.249" stroke="#333" stroke-width="4" stroke-linecap="round" stroke-linejoin="round"/><path d="M37.19 20.803a5.991 5.991 0 0 0-1.692-5.132 5.991 5.991 0 0 0-5.132-1.691" stroke="#333" stroke-width="4" stroke-linecap="round" stroke-linejoin="round"/><path d="M17.376 9.794a2 2 0 0 1 1.748 1.03l2.447 4.406a2 2 0 0 1 .04 1.866l-2.357 4.713s.683 3.512 3.541 6.37c2.859 2.858 6.359 3.53 6.359 3.53l4.713-2.357a2 2 0 0 1 1.866.041l4.42 2.457a2 2 0 0 1 1.027 1.748v5.074c0 2.583-2.4 4.45-4.848 3.623-5.028-1.696-12.832-4.927-17.78-9.873-4.946-4.947-8.176-12.752-9.873-17.78-.826-2.448 1.04-4.848 3.624-4.848h5.073z" fill="none" stroke="#333" stroke-width="4" stroke-linejoin="round"/></g></svg>