<svg width="24" height="24" viewBox="0 0 48 48" xmlns="http://www.w3.org/2000/svg"><g fill="none" class="nc-icon-wrapper"><path fill="#fff" fill-opacity=".01" d="M0 0h48v48H0z"/><rect x="8" y="4" width="32" height="40" rx="2" fill="none" stroke="#333" stroke-width="4" stroke-linejoin="round"/><path d="M21 14h12" stroke="#333" stroke-width="4" stroke-linecap="round" stroke-linejoin="round"/><path d="M21 24h12" stroke="#333" stroke-width="4" stroke-linecap="round" stroke-linejoin="round"/><path d="M21 34h12" stroke="#333" stroke-width="4" stroke-linecap="round" stroke-linejoin="round"/><path fill-rule="evenodd" clip-rule="evenodd" d="M15 16a2 2 0 1 0 0-4 2 2 0 0 0 0 4z" fill="#333"/><path fill-rule="evenodd" clip-rule="evenodd" d="M15 26a2 2 0 1 0 0-4 2 2 0 0 0 0 4z" fill="#333"/><path fill-rule="evenodd" clip-rule="evenodd" d="M15 36a2 2 0 1 0 0-4 2 2 0 0 0 0 4z" fill="#333"/></g></svg>