<svg width="24" height="24" viewBox="0 0 48 48" xmlns="http://www.w3.org/2000/svg"><g fill="none" class="nc-icon-wrapper"><path fill="#fff" fill-opacity=".01" d="M0 0h48v48H0z"/><path d="M24 44a19.937 19.937 0 0 0 14.142-5.858A19.937 19.937 0 0 0 44 24a19.938 19.938 0 0 0-5.858-14.142A19.937 19.937 0 0 0 24 4 19.938 19.938 0 0 0 9.858 9.858 19.938 19.938 0 0 0 4 24a19.937 19.937 0 0 0 5.858 14.142A19.938 19.938 0 0 0 24 44z" fill="#333" stroke="#333" stroke-width="4" stroke-linejoin="round"/><path d="M16 24l6 6 12-12" stroke="#FFF" stroke-width="4" stroke-linecap="round" stroke-linejoin="round"/></g></svg>