<svg width="24" height="24" viewBox="0 0 24 24" xmlns="http://www.w3.org/2000/svg"><g fill="none" class="nc-icon-wrapper"><path d="M3 3c.4.598 1.145 1 2 1s1.6-.402 2-1c.3-.598.859-1 1.5-1s1.2.402 1.5 1c.4.598 1.145 1 2 1s1.6-.402 2-1c.3-.598.859-1 1.5-1s1.2.402 1.5 1c.4.598 1.145 1 2 1s1.6-.402 2-1v18c-.4-.598-1.145-1-2-1s-1.6.402-2 1c-.3.598-.859 1-1.5 1s-1.2-.402-1.5-1c-.4-.598-1.145-1-2-1s-1.6.402-2 1c-.3.598-.859 1-1.5 1s-1.2-.402-1.5-1c-.4-.598-1.145-1-2-1s-1.6.402-2 1V3z" stroke="#333" stroke-width="2" stroke-linecap="round" stroke-linejoin="round"/><circle cx="8.5" cy="9.5" r="1.5" stroke="#333" stroke-width="2" stroke-linecap="round" stroke-linejoin="round"/><circle cx="15.5" cy="15.5" r="1.5" stroke="#333" stroke-width="2" stroke-linecap="round" stroke-linejoin="round"/><path d="M17 8l-9 8" stroke="#333" stroke-width="2" stroke-linecap="round" stroke-linejoin="round"/></g></svg>