<svg width="24" height="24" viewBox="0 0 24 24" xmlns="http://www.w3.org/2000/svg"><g fill="none" class="nc-icon-wrapper"><circle cx="9" cy="7" r="3" stroke="#333" stroke-width="2" stroke-linecap="round" stroke-linejoin="round"/><path d="M14 10a3 3 0 1 0 0-6" stroke="#333" stroke-width="2" stroke-linecap="round" stroke-linejoin="round"/><path d="M11 13H7a4 4 0 0 0-4 4 3 3 0 0 0 3 3h6a3 3 0 0 0 3-3 4 4 0 0 0-4-4z" stroke="#333" stroke-width="2" stroke-linecap="round" stroke-linejoin="round"/><path d="M17 13a4 4 0 0 1 4 4 3 3 0 0 1-3 3" stroke="#333" stroke-width="2" stroke-linecap="round" stroke-linejoin="round"/></g></svg>