<svg version="1.1" id="Capa_1" xmlns="http://www.w3.org/2000/svg" x="0" y="0" viewBox="0 0 18.453 18.453" xml:space="preserve" enable-background="new 0 0 18.453 18.453"><g class="nc-icon-wrapper"><path fill="#030104" d="M2.711 4.058h8.23v1.334h-8.23z"/><path d="M14.972 14.088a2.915 2.915 0 0 0-.475-3.49 2.89 2.89 0 0 0-2.058-.852c-.779 0-1.51.303-2.059.852s-.852 1.279-.852 2.059a2.9 2.9 0 0 0 .852 2.059c.549.547 1.279.85 2.057.85a2.91 2.91 0 0 0 1.434-.375l3.262 3.262 1.101-1.102-3.262-3.263zm-1.308-.207c-.652.652-1.796.652-2.448 0a1.734 1.734 0 0 1 0-2.449c.326-.326.762-.506 1.225-.506s.897.18 1.224.506.507.762.507 1.225-.181.897-.508 1.224z" fill="#030104"/><path d="M13.332 16.3H1.857a.329.329 0 0 1-.329-.328V1.638c0-.182.147-.329.329-.329h11.475c.182 0 .328.147.328.329V8.95a3.43 3.43 0 0 1 1.31.597V1.638A1.64 1.64 0 0 0 13.332 0H1.857A1.64 1.64 0 0 0 .219 1.638v14.334a1.64 1.64 0 0 0 1.638 1.637h11.475c.685 0 1.009-.162 1.253-.76l-.594-.594c-.219.092-.565.045-.659.045z" fill="#030104"/><path fill="#030104" d="M2.711 7.818h8.23v1.334h-8.23z"/></g></svg>